<svg width="99" height="99" viewBox="0 0 99 99" fill="none" xmlns="http://www.w3.org/2000/svg">
<rect width="99" height="99" rx="10" fill="#00A9E0"/>
<path d="M73.348 80.308C73.348 81.6 72.872 82.722 71.92 83.674C71.036 84.558 69.982 85 68.758 85H33.67C32.446 85 31.358 84.558 30.406 83.674C29.522 82.722 29.08 81.6 29.08 80.308V20.74C29.08 19.38 29.522 18.258 30.406 17.374C31.358 16.49 32.446 16.048 33.67 16.048H68.758C69.982 16.048 71.036 16.49 71.92 17.374C72.872 18.258 73.348 19.38 73.348 20.74V23.494C73.348 24.786 72.872 25.908 71.92 26.86C71.036 27.744 69.982 28.186 68.758 28.186H42.442C41.626 28.186 41.218 28.628 41.218 29.512V43.078C41.218 44.03 41.626 44.506 42.442 44.506H65.086C66.446 44.506 67.568 44.948 68.452 45.832C69.336 46.716 69.778 47.804 69.778 49.096V51.952C69.778 53.244 69.336 54.366 68.452 55.318C67.568 56.202 66.446 56.644 65.086 56.644H42.442C41.626 56.644 41.218 57.052 41.218 57.868V71.638C41.218 72.522 41.626 72.964 42.442 72.964H68.758C69.982 72.964 71.036 73.406 71.92 74.29C72.872 75.174 73.348 76.296 73.348 77.656V80.308Z" fill="white"/>
</svg>
